<mxfile host="65bd71144e" scale="2" border="0">
    <diagram id="y7i0gF2k7Df_1dw9g7ID" name="Page-1">
        <mxGraphModel dx="1038" dy="779" grid="1" gridSize="10" guides="1" tooltips="1" connect="1" arrows="1" fold="1" page="1" pageScale="1" pageWidth="1100" pageHeight="850" math="0" shadow="0">
            <root>
                <mxCell id="0"/>
                <mxCell id="1" parent="0"/>
                <mxCell id="2" value="μ&lt;sub&gt;k&lt;/sub&gt;" style="whiteSpace=wrap;html=1;aspect=fixed;fillColor=#d5e8d4;strokeColor=#82b366;fontColor=#000000;" parent="1" vertex="1">
                    <mxGeometry x="530.44" y="220.39000000000004" width="20" height="20" as="geometry"/>
                </mxCell>
                <mxCell id="3" value="Σ&lt;sub&gt;k&lt;/sub&gt;" style="whiteSpace=wrap;html=1;aspect=fixed;fillColor=#d5e8d4;strokeColor=#82b366;fontColor=#000000;" parent="1" vertex="1">
                    <mxGeometry x="560.44" y="220.39000000000004" width="20" height="20" as="geometry"/>
                </mxCell>
                <mxCell id="5" value="&lt;font color=&quot;#000000&quot;&gt;z&lt;/font&gt;" style="whiteSpace=wrap;html=1;aspect=fixed;fillColor=#d5e8d4;strokeColor=#82b366;" parent="1" vertex="1">
                    <mxGeometry x="620" y="260.00000000000006" width="20" height="20" as="geometry"/>
                </mxCell>
                <mxCell id="7" value="" style="endArrow=classic;html=1;" parent="1" edge="1">
                    <mxGeometry width="50" height="50" relative="1" as="geometry">
                        <mxPoint x="650" y="269.83000000000004" as="sourcePoint"/>
                        <mxPoint x="670" y="269.83000000000004" as="targetPoint"/>
                    </mxGeometry>
                </mxCell>
                <mxCell id="8" value="" style="endArrow=classic;html=1;" parent="1" edge="1">
                    <mxGeometry width="50" height="50" relative="1" as="geometry">
                        <mxPoint x="700" y="220" as="sourcePoint"/>
                        <mxPoint x="700" y="240" as="targetPoint"/>
                    </mxGeometry>
                </mxCell>
                <mxCell id="9" value="&lt;font color=&quot;#000000&quot;&gt;x&lt;sub&gt;k&lt;/sub&gt;&lt;/font&gt;" style="whiteSpace=wrap;html=1;aspect=fixed;fillColor=#dae8fc;strokeColor=#6c8ebf;gradientColor=#7ea6e0;" parent="1" vertex="1">
                    <mxGeometry x="690" y="190.00000000000006" width="20" height="20" as="geometry"/>
                </mxCell>
                <mxCell id="10" value="Dec" style="rounded=0;whiteSpace=wrap;html=1;" parent="1" vertex="1">
                    <mxGeometry x="680" y="250" width="40" height="40" as="geometry"/>
                </mxCell>
                <mxCell id="11" value="μ&lt;sub&gt;y&lt;/sub&gt;" style="whiteSpace=wrap;html=1;aspect=fixed;fillColor=#e6d0de;strokeColor=#996185;gradientColor=#d5739d;fontColor=#000000;" parent="1" vertex="1">
                    <mxGeometry x="760.7" y="244" width="20" height="20" as="geometry"/>
                </mxCell>
                <mxCell id="12" value="σ&lt;sub&gt;y&lt;/sub&gt;" style="whiteSpace=wrap;html=1;aspect=fixed;fillColor=#e6d0de;strokeColor=#996185;gradientColor=#d5739d;fontColor=#000000;" parent="1" vertex="1">
                    <mxGeometry x="760.7" y="275.44" width="20" height="20" as="geometry"/>
                </mxCell>
                <mxCell id="13" value="" style="endArrow=classic;html=1;" parent="1" edge="1">
                    <mxGeometry width="50" height="50" relative="1" as="geometry">
                        <mxPoint x="730" y="270" as="sourcePoint"/>
                        <mxPoint x="750" y="270" as="targetPoint"/>
                    </mxGeometry>
                </mxCell>
                <mxCell id="16" value="&lt;font color=&quot;#000000&quot;&gt;y&lt;sub&gt;k&lt;/sub&gt;&lt;/font&gt;" style="whiteSpace=wrap;html=1;aspect=fixed;fillColor=#f8cecc;strokeColor=#b85450;gradientColor=#ea6b66;" parent="1" vertex="1">
                    <mxGeometry x="810.56" y="260.00000000000006" width="20" height="20" as="geometry"/>
                </mxCell>
                <mxCell id="18" value="" style="shape=curlyBracket;whiteSpace=wrap;html=1;rounded=1;labelPosition=left;verticalLabelPosition=middle;align=right;verticalAlign=middle;fontColor=#000000;rotation=90;" parent="1" vertex="1">
                    <mxGeometry x="696.85" y="166.32" width="6.3" height="28.32" as="geometry"/>
                </mxCell>
                <mxCell id="19" value="Target Location" style="text;html=1;strokeColor=none;fillColor=none;align=center;verticalAlign=middle;whiteSpace=wrap;rounded=0;fontColor=#000000;" parent="1" vertex="1">
                    <mxGeometry x="680" y="150" width="40" height="18.32" as="geometry"/>
                </mxCell>
                <mxCell id="20" value="" style="shape=curlyBracket;whiteSpace=wrap;html=1;rounded=1;labelPosition=left;verticalLabelPosition=middle;align=right;verticalAlign=middle;fontColor=#000000;rotation=-90;" parent="1" vertex="1">
                    <mxGeometry x="538.44" y="285" width="6.3" height="90" as="geometry"/>
                </mxCell>
                <mxCell id="21" value="Task Posterior&amp;nbsp;&lt;br&gt;&lt;font style=&quot;font-size: 12px;&quot;&gt;q(z)&lt;/font&gt;" style="text;html=1;strokeColor=none;fillColor=none;align=center;verticalAlign=middle;whiteSpace=wrap;rounded=0;fontColor=#000000;" parent="1" vertex="1">
                    <mxGeometry x="505.44" y="330" width="74.56" height="54.63" as="geometry"/>
                </mxCell>
                <mxCell id="23" value="" style="shape=curlyBracket;whiteSpace=wrap;html=1;rounded=1;labelPosition=left;verticalLabelPosition=middle;align=right;verticalAlign=middle;fontColor=#000000;rotation=-90;" parent="1" vertex="1">
                    <mxGeometry x="767.22" y="292.77" width="6.3" height="24.56" as="geometry"/>
                </mxCell>
                <mxCell id="24" value="Predictive Marginal p(y&lt;sub&gt;k&lt;/sub&gt;&lt;span style=&quot;font-size: 12px;&quot;&gt;|x&lt;sub&gt;k&lt;/sub&gt;,z)&lt;/span&gt;" style="text;html=1;strokeColor=none;fillColor=none;align=center;verticalAlign=middle;whiteSpace=wrap;rounded=0;fontColor=#000000;fontSize=12;" parent="1" vertex="1">
                    <mxGeometry x="740.7" y="317.33" width="60" height="45.57" as="geometry"/>
                </mxCell>
                <mxCell id="25" value="" style="shape=curlyBracket;whiteSpace=wrap;html=1;rounded=1;labelPosition=left;verticalLabelPosition=middle;align=right;verticalAlign=middle;fontColor=#000000;rotation=-180;" parent="1" vertex="1">
                    <mxGeometry x="837.7" y="256.05" width="6.3" height="28.32" as="geometry"/>
                </mxCell>
                <mxCell id="26" value="Target Prediction" style="text;html=1;strokeColor=none;fillColor=none;align=center;verticalAlign=middle;whiteSpace=wrap;rounded=0;fontColor=#000000;" parent="1" vertex="1">
                    <mxGeometry x="849" y="261.68" width="50" height="18.32" as="geometry"/>
                </mxCell>
                <mxCell id="27" value="μ&lt;sub&gt;k&lt;/sub&gt;" style="whiteSpace=wrap;html=1;aspect=fixed;fillColor=#d5e8d4;strokeColor=#82b366;fontColor=#000000;" parent="1" vertex="1">
                    <mxGeometry x="530.44" y="299.61000000000007" width="20" height="20" as="geometry"/>
                </mxCell>
                <mxCell id="29" value="" style="line;strokeWidth=2;direction=south;html=1;dashed=1;dashPattern=1 4;" parent="1" vertex="1">
                    <mxGeometry x="535.44" y="256.44" width="10" height="36" as="geometry"/>
                </mxCell>
                <mxCell id="30" value="" style="line;strokeWidth=2;direction=south;html=1;dashed=1;dashPattern=1 4;" parent="1" vertex="1">
                    <mxGeometry x="565.44" y="256.39000000000004" width="10" height="36" as="geometry"/>
                </mxCell>
                <mxCell id="32" value="w&lt;sub&gt;k&lt;/sub&gt;" style="whiteSpace=wrap;html=1;aspect=fixed;fillColor=#d5e8d4;strokeColor=#82b366;fontColor=#000000;" parent="1" vertex="1">
                    <mxGeometry x="500" y="220" width="20" height="20" as="geometry"/>
                </mxCell>
                <mxCell id="33" value="Σ&lt;sub&gt;k&lt;/sub&gt;" style="whiteSpace=wrap;html=1;aspect=fixed;fillColor=#d5e8d4;strokeColor=#82b366;fontColor=#000000;" parent="1" vertex="1">
                    <mxGeometry x="560.44" y="299.61000000000007" width="20" height="20" as="geometry"/>
                </mxCell>
                <mxCell id="34" value="w&lt;sub&gt;k&lt;/sub&gt;" style="whiteSpace=wrap;html=1;aspect=fixed;fillColor=#d5e8d4;strokeColor=#82b366;fontColor=#000000;" parent="1" vertex="1">
                    <mxGeometry x="500" y="299.22" width="20" height="20" as="geometry"/>
                </mxCell>
                <mxCell id="35" value="" style="line;strokeWidth=2;direction=south;html=1;dashed=1;dashPattern=1 4;" parent="1" vertex="1">
                    <mxGeometry x="505" y="256" width="10" height="36" as="geometry"/>
                </mxCell>
                <mxCell id="38" value="&lt;font style=&quot;font-size: 25px;&quot;&gt;∼&lt;/font&gt;" style="text;html=1;strokeColor=none;fillColor=none;align=center;verticalAlign=middle;whiteSpace=wrap;rounded=0;fontSize=12;" parent="1" vertex="1">
                    <mxGeometry x="583.44" y="260" width="34.56" height="10.21" as="geometry"/>
                </mxCell>
                <mxCell id="39" value="&lt;font style=&quot;font-size: 25px;&quot;&gt;∼&lt;/font&gt;" style="text;html=1;strokeColor=none;fillColor=none;align=center;verticalAlign=middle;whiteSpace=wrap;rounded=0;fontSize=12;" parent="1" vertex="1">
                    <mxGeometry x="779" y="260.68" width="34.56" height="10.21" as="geometry"/>
                </mxCell>
            </root>
        </mxGraphModel>
    </diagram>
</mxfile>